<?xml version="1.0" standalone="no"?>
<!DOCTYPE svg PUBLIC "-//W3C//DTD SVG 1.1//EN" "http://www.w3.org/Graphics/SVG/1.1/DTD/svg11.dtd">
<svg width="404" height="404" version="1.1" xmlns="http://www.w3.org/2000/svg">
  <title>25 cells diameter theta maze</title>
  <desc>25 cells diameter theta maze generated by The Maze Generator Website (https://www.mazegenerator.net/).</desc>
  <g fill="none" stroke="#000000" stroke-width="2" stroke-linecap="square">
    <path d="M 187.6926627053964,239.95518130045147 A 40,40 0 1,1 203,243" />
    <path d="M 224.43027221244503,151.26274617936795 A 56,56 0 0,1 242.59797974644667,163.40202025355333" />
    <path d="M 254.73725382063205,181.56972778755497 A 56,56 0 0,1 181.569727787555,254.73725382063208" />
    <path d="M 163.40202025355333,163.40202025355336 A 56,56 0 0,1 181.56972778755494,151.26274617936795" />
    <path d="M 188.95349681483873,132.3834598109674 A 72,72 0 0,1 230.55320713028647,136.48067365918735" />
    <path d="M 243.00105677741135,143.13418791421674 A 72,72 0 0,1 262.86581208578326,162.99894322258865" />
    <path d="M 269.51932634081265,175.44679286971353 A 72,72 0 0,1 217.04650318516127,273.61654018903261" />
    <path d="M 188.95349681483876,273.61654018903261 A 72,72 0 0,1 136.48067365918737,230.5532071302865" />
    <path d="M 132.3834598109674,217.04650318516127 A 72,72 0 0,1 143.13418791421674,162.99894322258865" />
    <path d="M 152.08831175456857,152.08831175456859 A 72,72 0 0,1 162.99894322258865,143.13418791421674" />
    <path d="M 203,115 A 88,88 0 0,1 251.890180505725,129.83067411737602" />
    <path d="M 276.169325882624,154.109819494275 A 88,88 0 0,1 289.30910467548426,185.83205166258071" />
    <path d="M 289.30910467548426,220.16794833741929 A 88,88 0 0,1 236.6761420481279,284.30139886099323" />
    <path d="M 220.16794833741932,289.30910467548426 A 88,88 0 0,1 203,291" />
    <path d="M 154.10981949427503,276.169325882624 A 88,88 0 0,1 116.69089532451572,220.16794833741932" />
    <path d="M 115,203.00000000000003 A 88,88 0 0,1 185.83205166258068,116.69089532451572" />
    <path d="M 182.71060651032261,100.99833083806405 A 104,104 0 0,1 203,99" />
    <path d="M 242.79907696596933,106.91652861882618 A 104,104 0 0,1 299.08347138117381,163.20092303403067" />
    <path d="M 305.001669161936,182.71060651032266 A 104,104 0 0,1 307,203" />
    <path d="M 299.08347138117381,242.79907696596933 A 104,104 0 0,1 260.77930423403859,289.4728396794647" />
    <path d="M 242.79907696596933,299.08347138117381 A 104,104 0 0,1 223.28939348967737,305.001669161936" />
    <path d="M 182.71060651032266,305.001669161936 A 104,104 0 0,1 129.46089475659909,276.53910524340097" />
    <path d="M 116.52716032053529,260.77930423403865 A 104,104 0 0,1 100.99833083806404,223.28939348967737" />
    <path d="M 99,203.00000000000003 A 104,104 0 0,1 100.99833083806404,182.71060651032266" />
    <path d="M 116.52716032053527,145.22069576596141 A 104,104 0 0,1 145.22069576596135,116.5271603205353" />
    <path d="M 203,83 A 120,120 0 0,1 248.92201188381077,92.134456098645586" />
    <path d="M 269.66842796235227,103.22364652369457 A 120,120 0 0,1 287.85281374238571,118.14718625761429" />
    <path d="M 313.86554390135439,157.07798811618923 A 120,120 0 0,1 320.69423364838764,226.41083864193539" />
    <path d="M 313.86554390135439,248.92201188381077 A 120,120 0 0,1 226.41083864193544,320.69423364838764" />
    <path d="M 203.00000000000003,323 A 120,120 0 0,1 179.58916135806459,320.69423364838764" />
    <path d="M 157.07798811618926,313.86554390135439 A 120,120 0 0,1 136.33157203764779,302.77635347630547" />
    <path d="M 85.305766351612348,226.41083864193544 A 120,120 0 0,1 103.22364652369454,136.33157203764779" />
    <path d="M 118.14718625761428,118.14718625761432 A 120,120 0 0,1 179.58916135806456,85.305766351612363" />
    <path d="M 163.5212838933931,72.8561143404196 A 136,136 0 0,1 203,67" />
    <path d="M 216.33033108482024,67.654877172581223 A 136,136 0 0,1 242.4787161066069,72.8561143404196" />
    <path d="M 255.0449468016522,77.352383578465 A 136,136 0 0,1 289.2774866462558,97.87057834266777" />
    <path d="M 299.16652224137044,106.83347775862953 A 136,136 0 0,1 333.14388565958041,163.52128389339313" />
    <path d="M 338.34512282741878,189.66966891517973 A 136,136 0 0,1 328.647616421535,255.0449468016522" />
    <path d="M 322.94129195137629,267.10995620833569 A 136,136 0 0,1 255.04494680165223,328.64761642153496" />
    <path d="M 242.4787161066069,333.14388565958041 A 136,136 0 0,1 189.66966891517976,338.34512282741878" />
    <path d="M 163.52128389339316,333.14388565958041 A 136,136 0 0,1 138.89004379166431,322.94129195137629" />
    <path d="M 127.44244830933414,316.07986727314619 A 136,136 0 0,1 83.058708048623728,267.10995620833569" />
    <path d="M 77.352383578465037,255.04494680165229 A 136,136 0 0,1 72.8561143404196,242.4787161066069" />
    <path d="M 69.613201865160676,229.53228379419349 A 136,136 0 0,1 67.654877172581223,216.33033108482022" />
    <path d="M 67.654877172581223,189.66966891517984 A 136,136 0 0,1 69.613201865160647,176.46771620580654" />
    <path d="M 72.8561143404196,163.52128389339316 A 136,136 0 0,1 77.352383578465009,150.95505319834777" />
    <path d="M 83.058708048623714,138.89004379166431 A 136,136 0 0,1 97.870578342667784,116.72251335374421" />
    <path d="M 116.72251335374415,97.870578342667827 A 136,136 0 0,1 138.89004379166428,83.058708048623743" />
    <path d="M 158.87672905732171,57.545068968704271 A 152,152 0 0,1 247.12327094267829,57.545068968704243" />
    <path d="M 274.65230399755166,68.947967819050035 A 152,152 0 0,1 287.44667541897957,76.616618930013118" />
    <path d="M 299.42777919287414,85.50241108886398 A 152,152 0 0,1 310.48023074035524,95.519769259644775" />
    <path d="M 320.497588911136,106.57222080712587 A 152,152 0 0,1 337.05203218094994,131.34769600244835" />
    <path d="M 343.4296889417156,144.83211828050634 A 152,152 0 0,1 354.26807845417392,188.10139466990677" />
    <path d="M 355,203 A 152,152 0 0,1 329.38338106998691,287.44667541897951" />
    <path d="M 320.49758891113606,299.42777919287408 A 152,152 0 0,1 310.48023074035524,310.48023074035518" />
    <path d="M 299.42777919287414,320.497588911136 A 152,152 0 0,1 274.65230399755166,337.05203218094994" />
    <path d="M 261.16788171949366,343.42968894171554 A 152,152 0 0,1 217.89860533009323,354.26807845417392" />
    <path d="M 188.1013946699068,354.26807845417392 A 152,152 0 0,1 173.34627105354849,352.079362621291" />
    <path d="M 144.83211828050636,343.4296889417156 A 152,152 0 0,1 106.57222080712592,320.49758891113606" />
    <path d="M 95.519769259644789,310.48023074035524 A 152,152 0 0,1 85.502411088864022,299.42777919287414" />
    <path d="M 68.947967819050064,274.65230399755171 A 152,152 0 0,1 62.57031105828446,261.16788171949372" />
    <path d="M 57.545068968704243,247.12327094267829 A 152,152 0 0,1 53.920637378708989,232.65372894645157" />
    <path d="M 62.570311058284432,144.83211828050634 A 152,152 0 0,1 76.61661893001309,118.55332458102052" />
    <path d="M 106.57222080712582,85.502411088864037 A 152,152 0 0,1 118.55332458102046,76.616618930013118" />
    <path d="M 203,35 A 168,168 0 0,1 267.29081663733507,47.788238538103826" />
    <path d="M 296.33579914729319,63.3131051331724 A 168,168 0 0,1 309.57807173949243,73.134243835060175" />
    <path d="M 321.79393923934,84.206060760660009 A 168,168 0 0,1 332.8657561649398,96.421928260507556" />
    <path d="M 351.16277241052364,123.80534821323238 A 168,168 0 0,1 363.76597640301111,154.23217422125032" />
    <path d="M 367.77192710774273,170.22482590129044 A 168,168 0 0,1 371,203" />
    <path d="M 367.77192710774273,235.77517409870953 A 168,168 0 0,1 358.21176146189617,267.29081663733507" />
    <path d="M 351.16277241052364,282.19465178676762 A 168,168 0 0,1 332.86575616493985,309.57807173949243" />
    <path d="M 321.79393923934,321.79393923934 A 168,168 0 0,1 309.57807173949243,332.86575616493985" />
    <path d="M 235.77517409870961,367.77192710774273 A 168,168 0 0,1 219.46687957536622,370.19103408092906" />
    <path d="M 186.53312042463381,370.19103408092906 A 168,168 0 0,1 170.22482590129044,367.77192710774273" />
    <path d="M 154.23217422125038,363.76597640301111 A 168,168 0 0,1 123.80534821323241,351.16277241052364" />
    <path d="M 96.421928260507585,332.86575616493985 A 168,168 0 0,1 84.206060760660037,321.79393923934003" />
    <path d="M 73.134243835060232,309.57807173949249 A 168,168 0 0,1 63.3131051331724,296.33579914729319" />
    <path d="M 47.788238538103855,267.29081663733518 A 168,168 0 0,1 42.234023596988919,251.76782577874968" />
    <path d="M 38.2280728922573,235.77517409870961 A 168,168 0 0,1 35.808965919070914,186.53312042463392" />
    <path d="M 42.234023596988891,154.23217422125038 A 168,168 0 0,1 54.837227589476356,123.80534821323241" />
    <path d="M 109.66420085270683,63.3131051331724 A 168,168 0 0,1 123.80534821323235,54.837227589476385" />
    <path d="M 167.10338074903231,22.535508405805615 A 184,184 0 0,1 256.41238061482107,26.922978225273567" />
    <path d="M 305.22492287560681,50.009591336331681 A 184,184 0 0,1 333.10764773832477,72.892352261675256" />
    <path d="M 355.99040866366829,100.77507712439318 A 184,184 0 0,1 372.99383398207675,132.58624844482347" />
    <path d="M 379.0770217747264,149.58761938517893 A 184,184 0 0,1 383.46449159419444,167.1033807490324" />
    <path d="M 387,203 A 184,184 0 0,1 383.46449159419444,238.8966192509676" />
    <path d="M 372.99383398207681,273.41375155517653 A 184,184 0 0,1 355.99040866366835,305.22492287560675" />
    <path d="M 345.23392341874364,319.72836428611072 A 184,184 0 0,1 333.10764773832477,333.10764773832477" />
    <path d="M 319.72836428611078,345.23392341874364 A 184,184 0 0,1 305.22492287560681,355.99040866366835" />
    <path d="M 289.73699957598359,365.27351264009729 A 184,184 0 0,1 238.89661925096766,383.46449159419438" />
    <path d="M 221.03515382063918,386.11398970768425 A 184,184 0 0,1 203.00000000000003,387" />
    <path d="M 184.96484617936085,386.11398970768425 A 184,184 0 0,1 149.58761938517898,379.0770217747264" />
    <path d="M 100.77507712439325,355.99040866366835 A 184,184 0 0,1 86.271635713889268,345.23392341874364" />
    <path d="M 72.892352261675285,333.10764773832477 A 184,184 0 0,1 40.726487359902706,289.73699957598365" />
    <path d="M 26.922978225273567,256.41238061482107 A 184,184 0 0,1 22.535508405805615,238.89661925096766" />
    <path d="M 19.886010292315774,184.96484617936093 A 184,184 0 0,1 26.922978225273539,149.58761938517898" />
    <path d="M 40.726487359902677,116.26300042401645 A 184,184 0 0,1 50.009591336331624,100.77507712439326" />
    <path d="M 60.766076581256414,86.271635713889211 A 184,184 0 0,1 86.271635713889154,60.76607658125647" />
    <path d="M 116.26300042401638,40.726487359902706 A 184,184 0 0,1 132.58624844482335,33.006166017923277" />
    <path d="M 222.60342806591211,3.9630546655606338 A 200,200 0 1,1 203,3" />
  </g>
  <g fill="none" stroke="#000000" stroke-width="2" stroke-linecap="butt">
    <line x1="203" y1="51" x2="203" y2="83" />
    <line x1="203" y1="99" x2="203" y2="163" />
    <line x1="222.60342806591211" y1="3.9630546655606054" x2="221.03515382063915" y2="19.886010292315774" />
    <line x1="226.41083864193539" y1="85.305766351612348" x2="223.28939348967734" y2="100.99833083806404" />
    <line x1="247.12327094267829" y1="57.545068968704271" x2="242.47871610660687" y2="72.8561143404196" />
    <line x1="279.53668647301794" y1="18.224093497742643" x2="267.29081663733507" y2="47.788238538103826" />
    <line x1="261.16788171949366" y1="62.5703110582844" x2="242.79907696596933" y2="106.91652861882618" />
    <line x1="297.27934736519956" y1="26.615747130328998" x2="274.65230399755166" y2="68.947967819050035" />
    <line x1="305.22492287560681" y1="50.009591336331681" x2="296.33579914729319" y2="63.3131051331724" />
    <line x1="251.890180505725" y1="129.83067411737602" x2="243.00105677741135" y2="143.13418791421674" />
    <line x1="309.57807173949243" y1="73.134243835060175" x2="289.2774866462558" y2="97.87057834266777" />
    <line x1="333.10764773832477" y1="72.892352261675256" x2="321.79393923934" y2="84.206060760660009" />
    <line x1="299.16652224137044" y1="106.83347775862953" x2="287.85281374238571" y2="118.14718625761429" />
    <line x1="276.53910524340097" y1="129.46089475659903" x2="242.59797974644664" y2="163.40202025355333" />
    <line x1="357.60209067254743" y1="76.121343167270908" x2="345.23392341874364" y2="86.271635713889225" />
    <line x1="332.86575616493985" y1="96.421928260507556" x2="320.497588911136" y2="106.57222080712589" />
    <line x1="355.99040866366829" y1="100.77507712439318" x2="342.68689486682763" y2="109.66420085270681" />
    <line x1="302.77635347630542" y1="136.33157203764773" x2="289.4728396794647" y2="145.22069576596135" />
    <line x1="351.16277241052364" y1="123.80534821323236" x2="337.05203218094994" y2="131.34769600244835" />
    <line x1="387.77590650225738" y1="126.46331352698203" x2="372.99383398207675" y2="132.58624844482347" />
    <line x1="343.4296889417156" y1="144.83211828050634" x2="328.64761642153496" y2="150.9550531983478" />
    <line x1="254.73725382063205" y1="181.56972778755497" x2="239.95518130045147" y2="187.6926627053964" />
    <line x1="379.0770217747264" y1="149.58761938517893" x2="363.76597640301111" y2="154.23217422125032" />
    <line x1="383.46449159419438" y1="167.1033807490324" x2="367.77192710774273" y2="170.22482590129044" />
    <line x1="336.38679813483935" y1="176.46771620580654" x2="320.69423364838764" y2="179.58916135806459" />
    <line x1="305.001669161936" y1="182.71060651032266" x2="273.61654018903261" y2="188.95349681483876" />
    <line x1="402.03694533443934" y1="183.39657193408783" x2="386.11398970768425" y2="184.96484617936082" />
    <line x1="354.26807845417392" y1="188.10139466990677" x2="338.34512282741878" y2="189.66966891517973" />
    <line x1="387" y1="203" x2="355" y2="203" />
    <line x1="307" y1="203" x2="291" y2="203" />
    <line x1="370.19103408092906" y1="219.46687957536619" x2="354.268078454174" y2="217.89860533009323" />
    <line x1="383.46449159419438" y1="238.8966192509676" x2="367.77192710774273" y2="235.77517409870953" />
    <line x1="320.69423364838764" y1="226.41083864193539" x2="289.30910467548426" y2="220.16794833741929" />
    <line x1="394.38806714644181" y1="261.05693545089241" x2="379.0770217747264" y2="256.412380614821" />
    <line x1="372.99383398207675" y1="273.41375155517653" x2="358.21176146189617" y2="267.29081663733507" />
    <line x1="328.64761642153496" y1="255.0449468016522" x2="299.08347138117381" y2="242.79907696596933" />
    <line x1="337.05203218094994" y1="274.65230399755166" x2="322.94129195137629" y2="267.10995620833569" />
    <line x1="332.86575616493985" y1="309.57807173949243" x2="320.49758891113606" y2="299.42777919287408" />
    <line x1="333.10764773832477" y1="333.10764773832477" x2="321.79393923934" y2="321.79393923934" />
    <line x1="310.48023074035524" y1="310.48023074035518" x2="299.16652224137044" y2="299.16652224137044" />
    <line x1="309.57807173949243" y1="332.86575616493985" x2="299.42777919287414" y2="320.497588911136" />
    <line x1="314.11404660392043" y1="369.29392246050907" x2="296.33579914729319" y2="342.68689486682763" />
    <line x1="289.73699957598359" y1="365.27351264009729" x2="274.65230399755166" y2="337.05203218094994" />
    <line x1="273.41375155517653" y1="372.99383398207675" x2="267.29081663733507" y2="358.21176146189617" />
    <line x1="261.16788171949366" y1="343.4296889417156" x2="255.04494680165223" y2="328.64761642153496" />
    <line x1="242.79907696596933" y1="299.08347138117381" x2="236.6761420481279" y2="284.30139886099323" />
    <line x1="251.76782577874968" y1="363.76597640301111" x2="247.12327094267829" y2="348.4549310312957" />
    <line x1="238.89661925096766" y1="383.46449159419438" x2="235.77517409870961" y2="367.77192710774273" />
    <line x1="229.53228379419349" y1="336.38679813483935" x2="223.28939348967737" y2="305.001669161936" />
    <line x1="220.16794833741932" y1="289.30910467548426" x2="217.04650318516127" y2="273.61654018903261" />
    <line x1="222.60342806591217" y1="402.03694533443934" x2="221.03515382063918" y2="386.11398970768425" />
    <line x1="219.46687957536622" y1="370.19103408092906" x2="217.89860533009323" y2="354.26807845417392" />
    <line x1="203.00000000000003" y1="387" x2="203.00000000000003" y2="339" />
    <line x1="203.00000000000003" y1="323" x2="203" y2="275" />
    <line x1="186.53312042463381" y1="370.19103408092906" x2="188.1013946699068" y2="354.268078454174" />
    <line x1="173.34627105354849" y1="352.079362621291" x2="185.83205166258071" y2="289.30910467548426" />
    <line x1="149.58761938517898" y1="379.0770217747264" x2="158.87672905732177" y2="348.45493103129576" />
    <line x1="126.46331352698206" y1="387.77590650225738" x2="132.5862484448235" y2="372.99383398207681" />
    <line x1="150.9550531983478" y1="328.647616421535" x2="157.07798811618923" y2="313.86554390135444" />
    <line x1="169.3238579518721" y1="284.30139886099323" x2="181.56972778755497" y2="254.73725382063208" />
    <line x1="108.72065263480047" y1="379.384252869671" x2="123.80534821323239" y2="351.16277241052364" />
    <line x1="131.34769600244835" y1="337.05203218094994" x2="138.89004379166431" y2="322.94129195137629" />
    <line x1="100.77507712439324" y1="355.9904086636684" x2="118.55332458102051" y2="329.38338106998691" />
    <line x1="106.57222080712592" y1="320.49758891113606" x2="116.72251335374425" y2="308.12942165733227" />
    <line x1="61.578643762690518" y1="344.42135623730951" x2="84.206060760660023" y2="321.79393923934003" />
    <line x1="106.83347775862954" y1="299.1665222413705" x2="129.46089475659906" y2="276.53910524340097" />
    <line x1="163.40202025355336" y1="242.59797974644667" x2="174.7157287525381" y2="231.2842712474619" />
    <line x1="73.134243835060232" y1="309.57807173949254" x2="97.870578342667812" y2="289.27748664625585" />
    <line x1="63.3131051331724" y1="296.33579914729319" x2="76.616618930013118" y2="287.44667541897957" />
    <line x1="103.22364652369457" y1="269.66842796235227" x2="116.5271603205353" y2="260.77930423403865" />
    <line x1="40.726487359902706" y1="289.73699957598359" x2="83.058708048623728" y2="267.10995620833569" />
    <line x1="18.2240934977427" y1="279.53668647301805" x2="47.788238538103855" y2="267.29081663733518" />
    <line x1="62.57031105828446" y1="261.16788171949372" x2="92.134456098645614" y2="248.92201188381085" />
    <line x1="136.48067365918737" y1="230.5532071302865" x2="151.26274617936795" y2="224.43027221244506" />
    <line x1="22.535508405805615" y1="238.89661925096766" x2="100.99833083806405" y2="223.28939348967737" />
    <line x1="116.69089532451574" y1="220.16794833741932" x2="132.38345981096742" y2="217.04650318516127" />
    <line x1="3.9630546655606054" y1="222.60342806591208" x2="19.886010292315774" y2="221.03515382063912" />
    <line x1="51.731921545826054" y1="217.89860533009318" x2="67.654877172581223" y2="216.33033108482022" />
    <line x1="19" y1="203.00000000000003" x2="67" y2="203.00000000000003" />
    <line x1="99" y1="203.00000000000003" x2="115" y2="203.00000000000003" />
    <line x1="131" y1="203" x2="163" y2="203" />
    <line x1="51.731921545826054" y1="188.10139466990688" x2="67.654877172581223" y2="189.66966891517984" />
    <line x1="22.535508405805615" y1="167.1033807490324" x2="85.305766351612348" y2="179.58916135806462" />
    <line x1="42.234023596988891" y1="154.23217422125038" x2="72.8561143404196" y2="163.52128389339316" />
    <line x1="18.224093497742672" y1="126.463313526982" x2="47.788238538103855" y2="138.70918336266487" />
    <line x1="62.570311058284432" y1="144.83211828050634" x2="77.352383578465023" y2="150.95505319834777" />
    <line x1="92.1344560986456" y1="157.0779881161892" x2="121.69860113900678" y2="169.32385795187207" />
    <line x1="136.48067365918735" y1="175.44679286971353" x2="151.26274617936795" y2="181.56972778755497" />
    <line x1="50.009591336331624" y1="100.77507712439326" x2="76.61661893001309" y2="118.55332458102052" />
    <line x1="89.920132726853822" y1="127.44244830933415" x2="116.52716032053527" y2="145.22069576596141" />
    <line x1="60.766076581256414" y1="86.271635713889211" x2="97.870578342667784" y2="116.72251335374421" />
    <line x1="84.20606076066" y1="84.206060760660051" x2="118.14718625761428" y2="118.14718625761432" />
    <line x1="140.7746032555838" y1="140.77460325558383" x2="152.08831175456857" y2="152.08831175456859" />
    <line x1="86.271635713889154" y1="60.766076581256442" x2="116.72251335374415" y2="97.870578342667812" />
    <line x1="91.885953396079572" y1="36.706077539490963" x2="109.66420085270684" y2="63.3131051331724" />
    <line x1="123.80534821323235" y1="54.837227589476385" x2="138.89004379166428" y2="83.058708048623743" />
    <line x1="132.58624844482335" y1="33.006166017923277" x2="181.56972778755494" y2="151.26274617936795" />
    <line x1="144.9430645491075" y1="11.611932853558244" x2="158.87672905732171" y2="57.545068968704271" />
    <line x1="167.10338074903231" y1="22.535508405805615" x2="170.22482590129039" y2="38.2280728922573" />
    <line x1="186.53312042463384" y1="35.808965919070914" x2="188.1013946699068" y2="51.731921545826054" />
  </g>
</svg>
